<svg xmlns="http://www.w3.org/2000/svg" width="256" height="54" viewBox="0 0 256 54">
  <defs>
    <style>
      .cls-1 {
        fill: #fff;
      }

      .cls-2 {
        fill: #f8113e;
      }

      .cls-3 {
        fill: #6fc7bf;
      }
    </style>
  </defs>
  <g id="组_29" data-name="组 29" transform="translate(-141.608 -270.886)">
    <g id="组_27" data-name="组 27" transform="translate(141.608 270.886)">
      <g id="组_19" data-name="组 19" transform="translate(46.438)">
        <g id="组_16" data-name="组 16">
          <path id="路径_18" data-name="路径 18" class="cls-1" d="M189.137,275.933c-.075.009-.236.023-.391.041a1.124,1.124,0,0,1,.119-.408c1.174-1.48,2.361-2.956,3.544-4.43.282-.36.519-.314.768.033.533.743,1.053,1.488,1.609,2.214.312.409.194.635-.252.782-1.771.579-3.543,1.159-5.4,1.768Z" transform="translate(-188.746 -270.886)"/>
        </g>
        <g id="组_17" data-name="组 17" transform="translate(2.275 15.698)">
          <path id="路径_19" data-name="路径 19" class="cls-1" d="M191.417,287.364c1.967-.146,3.882-.282,5.8-.437.462-.037.574.167.468.579-.212.882-.425,1.763-.624,2.648-.1.468-.332.578-.761.344-1.634-.886-3.271-1.752-4.9-2.638a1.641,1.641,0,0,1-.342-.309c.137-.071.27-.136.362-.187Z" transform="translate(-191.055 -286.924)"/>
        </g>
        <g id="组_18" data-name="组 18" transform="translate(2.923 7.555)">
          <path id="路径_20" data-name="路径 20" class="cls-1" d="M197.5,280.2c.078.381.133.773.242,1.148.146.526.06.789-.582.717-1.658-.194-3.324-.336-4.977-.511a1.512,1.512,0,0,1-.472-.226,2.511,2.511,0,0,1,.363-.306q1.624-.9,3.263-1.783c1.768-.963,1.769-.957,2.163.961Z" transform="translate(-191.713 -278.604)"/>
        </g>
      </g>
      <g id="组_20" data-name="组 20" transform="translate(16.615 7.556)">
        <path id="路径_21" data-name="路径 21" class="cls-2" d="M162.391,281.474,158.5,294.168a.55.55,0,0,0,.358.684l.012,0a.556.556,0,0,0,.693-.367l4.826-15.738a3.177,3.177,0,0,0-.437-.118,2.441,2.441,0,0,0-1.146.1A10.173,10.173,0,0,1,162.391,281.474Z" transform="translate(-158.474 -278.606)"/>
      </g>
      <g id="组_21" data-name="组 21" transform="translate(23.51 3.685)">
        <path id="路径_22" data-name="路径 22" class="cls-2" d="M171.5,278.5c-1.132,3.818-5.995,17.642-5.995,17.642a.555.555,0,0,0,1.041.383l5.21-14.011a2.789,2.789,0,0,1,1.906-1.7l.337-1.1c.646-2.615.753-3.942-1.028-4.794a2.263,2.263,0,0,0-2.346.12c-.05.03-.093.073-.142.107A2.842,2.842,0,0,1,171.5,278.5Z" transform="translate(-165.473 -274.65)"/>
      </g>
      <g id="组_22" data-name="组 22" transform="translate(25.505 1.895)">
        <path id="路径_23" data-name="路径 23" class="cls-2" d="M192.51,299.863a2.2,2.2,0,0,0-1.763-1.013c-1.592-.231-3.59,1.891-5.522,3.944A40.422,40.422,0,0,1,182.3,305.7a.555.555,0,0,1-.667.045.548.548,0,0,1-.227-.625l6.965-22.32a3.137,3.137,0,0,0-.43-2.8,2.532,2.532,0,0,0-1.229-.9l-.03-.01A2.762,2.762,0,0,0,183.3,280.8l-5.21,14.01a.555.555,0,0,1-1.041-.382s4.863-13.823,5.995-17.643a2.9,2.9,0,0,0-1.793-3.771,3.437,3.437,0,0,0-3.747,1,5.377,5.377,0,0,0-1.228,2.148l-1.4,4.563a2.418,2.418,0,0,1,.3.034l.03.01a2.526,2.526,0,0,1,1.229.9,3.137,3.137,0,0,1,.43,2.8L169.9,306.795a.549.549,0,0,0,.227.625.557.557,0,0,0,.667-.045,40.435,40.435,0,0,0,2.925-2.906c1.932-2.054,3.93-4.176,5.522-3.945A2.2,2.2,0,0,1,181,301.537c.7,1.273-.219,3.321-.228,3.342a.4.4,0,0,0-.021.051c-.035.1-3.651,10.425-12.177,16.481-.354.253-.717.456-1.079.668a16.221,16.221,0,0,0,12.586-2.342c8.526-6.057,12.142-16.378,12.177-16.482.006-.017.013-.034.021-.051S193.21,301.136,192.51,299.863Z" transform="translate(-167.498 -272.822)"/>
      </g>
      <g id="组_23" data-name="组 23" transform="translate(28.123 9.751)">
        <path id="路径_24" data-name="路径 24" class="cls-3" d="M170.537,293.224l.012,0a.556.556,0,0,0,.693-.366l3.67-11.967a2.551,2.551,0,0,0-1.176.051l-3.555,11.594A.549.549,0,0,0,170.537,293.224Z" transform="translate(-170.155 -280.848)"/>
      </g>
      <g id="组_24" data-name="组 24" transform="translate(21.035 3.57)">
        <path id="路径_25" data-name="路径 25" class="cls-3" d="M166.176,281.361l-3.189,9.714a.551.551,0,0,0,.355.695h0a.555.555,0,0,0,.7-.353l3.2-9.757h0l1.3-3.972a4.9,4.9,0,0,1,1.9-2.542,3,3,0,0,0-.778-.421,3.437,3.437,0,0,0-3.747,1,5.359,5.359,0,0,0-1.228,2.148l-.243.792A2.455,2.455,0,0,1,166.176,281.361Z" transform="translate(-162.96 -274.533)"/>
      </g>
      <g id="组_25" data-name="组 25" transform="translate(0 5.36)">
        <path id="路径_26" data-name="路径 26" class="cls-3" d="M153.139,306.5a23.238,23.238,0,0,1,1.024-7.921l6.437-18.023a3.688,3.688,0,0,1,1.954-1.87,2.2,2.2,0,0,0-1.44-2.058,2.265,2.265,0,0,0-2.346.12,4.879,4.879,0,0,0-2.041,2.65l-1.3,3.971h0l-3.2,9.758a.556.556,0,0,1-.7.353h0a.55.55,0,0,1-.355-.695l3.189-9.714a2.439,2.439,0,0,0-2.16-2.814c-2.017-.3-3,1.765-3.1,1.974l-6.437,18.022a23.236,23.236,0,0,0-1.024,7.92,16.327,16.327,0,0,0,7.475,13.484c.487.259,10,5.173,18.007.492a24.393,24.393,0,0,1-6.5-2.168A16.324,16.324,0,0,1,153.139,306.5Z" transform="translate(-141.608 -276.362)"/>
      </g>
      <g id="组_26" data-name="组 26" transform="translate(11.508 4.183)">
        <path id="路径_27" data-name="路径 27" class="cls-1" d="M180.543,304.98a.4.4,0,0,1,.021-.051c.009-.021.928-2.068.228-3.342a2.2,2.2,0,0,0-1.763-1.013c-1.592-.231-3.59,1.891-5.522,3.945a40.437,40.437,0,0,1-2.925,2.906.557.557,0,0,1-.667.045.549.549,0,0,1-.227-.625l6.965-22.319a3.137,3.137,0,0,0-.43-2.8,2.526,2.526,0,0,0-1.229-.9l-.03-.01a2.418,2.418,0,0,0-.3-.034l-3.67,11.967a.556.556,0,0,1-.693.366l-.012,0a.549.549,0,0,1-.358-.684l3.555-11.594a2.789,2.789,0,0,0-1.906,1.7l-5.21,14.011a.555.555,0,0,1-1.041-.383s4.863-13.823,5.995-17.642a2.841,2.841,0,0,0-1.015-3.352,4.9,4.9,0,0,0-1.9,2.542l-1.3,3.972h0l-3.2,9.757a.555.555,0,0,1-.7.353h0a.551.551,0,0,1-.355-.695l3.189-9.714a2.455,2.455,0,0,0-1.723-2.7l-4.826,15.738a.556.556,0,0,1-.693.367l-.012,0a.55.55,0,0,1-.358-.684l3.892-12.694a10.173,10.173,0,0,0,.413-2.737,3.688,3.688,0,0,0-1.954,1.87l-6.437,18.023a23.238,23.238,0,0,0-1.024,7.921,16.324,16.324,0,0,0,7.475,13.483,24.392,24.392,0,0,0,6.5,2.168c.362-.211.725-.415,1.079-.668C176.892,315.4,180.508,305.083,180.543,304.98Z" transform="translate(-153.289 -275.159)"/>
      </g>
    </g>
    <g id="组_28" data-name="组 28" transform="translate(210.174 285.524)">
      <path id="路径_28" data-name="路径 28" class="cls-1" d="M211.208,285.84h14.627c5.921,0,9.926,1.9,9.926,7.657a6.711,6.711,0,0,1-4.222,6.445c3.83,1.082,5.7,3.98,5.7,7.829,0,6.272-5.355,8.954-10.971,8.954H211.208Zm6.835,12.5h6.922c2.437,0,4.179-1.082,4.179-3.677,0-2.9-2.264-3.547-4.7-3.547h-6.4Zm0,13.107h7.314c2.655,0,5.05-.865,5.05-4.066,0-3.158-1.959-4.413-4.92-4.413h-7.444Z" transform="translate(-211.208 -285.84)"/>
      <path id="路径_29" data-name="路径 29" class="cls-1" d="M248.009,290.9h-6.182V285.84h6.182Zm-6.182,3.46h6.182v22.363h-6.182Z" transform="translate(-211.663 -285.84)"/>
      <path id="路径_30" data-name="路径 30" class="cls-1" d="M274.676,315.468c0,3.677-1.351,9.9-11.667,9.9-4.441,0-9.578-2.119-9.925-7.181h6.138c.565,2.293,2.395,3.072,4.614,3.072,3.439,0,5.007-2.292,4.963-5.537v-2.941h-.088a7.476,7.476,0,0,1-6.747,3.461c-6.791,0-9.621-5.1-9.621-11.247,0-5.8,3.4-11.073,9.664-11.073,2.96,0,5.181.995,6.7,3.59h.088v-2.985h5.877ZM268.8,305.433c0-3.633-1.263-6.878-5.268-6.878-3.483,0-5.007,3.029-5.007,6.359,0,3.2,1.175,6.705,5.007,6.705C267.057,311.619,268.8,308.633,268.8,305.433Z" transform="translate(-211.819 -286.011)"/>
      <path id="路径_31" data-name="路径 31" class="cls-1" d="M311.722,291.52H299.14l-1.219,6.877.087.087a7.778,7.778,0,0,1,5.965-2.336c6.006,0,9.4,4.628,9.4,10.295a11,11,0,0,1-11.32,10.9c-5.92,0-11.187-3.244-11.317-9.6h6.181a4.852,4.852,0,0,0,5.008,4.542c3.22,0,5.267-2.811,5.267-5.839,0-3.158-1.958-5.667-5.267-5.667a5.057,5.057,0,0,0-4.659,2.423H291.7l3-16.74h17.021Z" transform="translate(-212.389 -285.853)"/>
      <path id="路径_32" data-name="路径 32" class="cls-1" d="M342.593,316.909h-6.355l-4.006-15.01h-.087l-3.831,15.01h-6.4l-7.14-22.363H321.3l4.137,15.182h.087l3.745-15.182h6.007l3.831,15.139h.088l4.135-15.139h6.356Z" transform="translate(-212.746 -286.024)"/>
      <path id="路径_33" data-name="路径 33" class="cls-1" d="M352.586,301.41c.349-5.71,5.529-7.483,10.579-7.483,4.483,0,9.883.995,9.883,6.359v11.636c0,2.033.217,4.066.782,4.974h-6.269a9.067,9.067,0,0,1-.434-2.163,10.3,10.3,0,0,1-7.576,2.768c-4.31,0-7.661-2.119-7.661-6.7.087-10.165,15.237-4.715,14.975-9.733,0-2.595-1.827-3.028-4-3.028-2.395,0-3.875.951-4.092,3.374Zm14.279,4.542c-1.044.908-3.22.951-5.138,1.3s-3.656,1.039-3.656,3.288,1.785,2.855,3.787,2.855c4.832,0,5.007-3.764,5.007-5.148Z" transform="translate(-213.297 -286.011)"/>
      <path id="路径_34" data-name="路径 34" class="cls-1" d="M378.224,294.533H384.1v2.854h.088a7.455,7.455,0,0,1,6.7-3.46c7.054,0,10.231,5.667,10.231,12.025,0,5.969-3.265,11.548-9.882,11.548a8,8,0,0,1-6.747-3.373H384.4v10.64h-6.181Zm16.717,11.246c0-3.59-1.437-7.224-5.4-7.224-4.048,0-5.353,3.59-5.353,7.224s1.393,7.094,5.4,7.094C393.635,312.873,394.941,309.412,394.941,305.779Z" transform="translate(-213.688 -286.011)"/>
    </g>
  </g>
</svg>
